
[img]http://img138.imageshack.us/img138/5421/toppos.jpg[/img]

[img]http://www.imagefreeks.com/out.php/i79_banner.png[/img]

[img]http://www.imagefreeks.com/out.php/i85_info.png[/img]

[code]File size : 693 MiB
Duration : 1h 2mn
Overall bit rate : 1 547 Kbps


Video
ID : 0
Format : MPEG-4 Visual
Format profile : Advanced Simple@L5
Format settings, BVOP : Yes
Format settings, QPel : No
Format settings, GMC : No warppoints
Format settings, Matrix : Default (H.263)
Codec ID : XVID
Codec ID/Hint : XviD
Duration : 1h 2mn
Bit rate : 1 415 Kbps
Width : 608 pixels
Height : 336 pixels
Display aspect ratio : 16:9
Frame rate : 25.000 fps
Color space : YUV
Chroma subsampling : 4:2:0
Bit depth : 8 bits
Scan type : Progressive
Compression mode : Lossy
Bits/(Pixel*Frame) : 0.277
Stream size : 634 MiB (91%)
Writing library : XviD 1.2.1 (UTC 2008-12-04)

Audio
ID : 1
Format : MPEG Audio
Format version : Version 1
Format profile : Layer 3
Mode : Joint stereo
Mode extension : MS Stereo
Codec ID : 55
Codec ID/Hint : MP3
Duration : 1h 2mn
Bit rate mode : Constant
Bit rate : 128 Kbps
Channel(s) : 2 channels
Sampling rate : 48.0 KHz
Compression mode : Lossy
Stream size : 57.4 MiB (8%)
Alignment : Aligned on interleaves
Interleave, duration : 556 ms (13.91 video frames)
Interleave, preload duration : 216 ms
Title : VTS_01_1 T80 2_0ch 192Kbps DELAY 0ms
Writing library : LAME3.98r
Encoding settings : -m j -V 4 -q 2 -lowpass 17 -b 128[/code]

[img]http://www.imagefreeks.com/out.php/i86_screens.png[/img]

[img]http://www.imagefreeks.com/out.php/i150_JRvcu513.png[/img]
[img]http://www.imagefreeks.com/out.php/i149_8jHRJWrR.png[/img]
[img]http://www.imagefreeks.com/out.php/i148_JAZW1eqN.png[/img]
[img]http://www.imagefreeks.com/out.php/i147_YIs85cUx.png[/img]
[img]http://www.imagefreeks.com/out.php/i146_6j0sfbEN.png[/img]
[img]http://www.imagefreeks.com/out.php/i145_AW1GCoSv.png[/img]